<svg id="Layer_1" data-name="Layer 1" xmlns="http://www.w3.org/2000/svg" viewBox="0 0 432 259.33"><defs><style>.cls-1{fill:none;}.cls-2{fill:#fff;}.cls-3{fill:#ffe14f;}</style></defs><title>Lodge Logo_For Merge</title><polygon class="cls-1" points="133.36 232.22 138.94 232.22 136.15 224.66 133.36 232.22"/><path class="cls-1" d="M141.69,56.79c1.19,0,3.92-19.42,5.35-27.58,1.27-7.26-.79-13.56-5.35-13.56S135.1,22,136.32,29.28C137.85,38.42,140.29,56.79,141.69,56.79Z"/><path class="cls-1" d="M240.39,112c-1.59-2.49-4.13-3.66-8.13-3.66a13.58,13.58,0,0,0-2.55.17v67.34a31.79,31.79,0,0,0,3.67.16c6.86,0,8.77-2.81,8.77-12.11v-1.48c0-1,0-4.31.16-9.8v-8.28c0-7.8-.16-18.58-.16-23.89A22,22,0,0,0,240.39,112Z"/><path class="cls-1" d="M268.35,226.37c0-1.87-.57-3.37-3.73-3.37H257.1v6.74h7.52C267.77,229.74,268.35,228.24,268.35,226.37Z"/><path class="cls-1" d="M161.49,73.9a3.33,3.33,0,1,0-3.33-3.34A3.06,3.06,0,0,0,161.49,73.9Zm-1.76-5.73h2a1.41,1.41,0,0,1,1.6,1.55,1.54,1.54,0,0,1-.74,1.39l1,1.86h-1l-.88-1.71h-1.2V73h-.84Z"/><path class="cls-1" d="M162.46,69.72c0-.33-.1-.77-.66-.77h-1.23V70.5h1.23C162.36,70.5,162.46,70.07,162.46,69.72Z"/><path class="cls-1" d="M293,222.38c-6.27,0-7.93,3.78-7.93,8.7s1.66,8.7,7.93,8.7S301,236,301,231.08,299.26,222.38,293,222.38Z"/><path d="M72.24,222.64a2.42,2.42,0,0,0-1.08-.55c-.48-.06-.71.26-1.3.53a9.6,9.6,0,0,0-6.58,4.93A3.49,3.49,0,0,1,62,229.18a5.53,5.53,0,0,1-2.72.9c-.45,0-4.83-.8-5.3-.88-1.78-.3-2.19.31-2.54.69a2.05,2.05,0,0,0-.11,2.49,2.52,2.52,0,0,0,2.26,1c.34,0,5-1,5.78-1.06a5.46,5.46,0,0,1,2.63.78,2.94,2.94,0,0,1,1.3,1.65l0,0A8.22,8.22,0,0,0,66.27,238a12,12,0,0,0,3.93,1.48,3.27,3.27,0,0,0,1.27.57,1.79,1.79,0,0,0,1.21-.53A11.22,11.22,0,0,0,77.62,237a8.24,8.24,0,0,0,2.48-5.91C80.09,226.72,77,223.65,72.24,222.64Z"/><path d="M380.6,229.2c-.47.08-4.84.91-5.29.88a5.53,5.53,0,0,1-2.72-.9,3.5,3.5,0,0,1-1.28-1.63,9.6,9.6,0,0,0-6.58-4.93c-.59-.27-.82-.59-1.3-.53a2.42,2.42,0,0,0-1.08.55c-4.77,1-7.86,4.08-7.86,8.47A8.24,8.24,0,0,0,357,237a11.22,11.22,0,0,0,4.95,2.54,1.79,1.79,0,0,0,1.21.53,3.24,3.24,0,0,0,1.27-.57,12,12,0,0,0,3.93-1.48,8.22,8.22,0,0,0,2.94-3.28l0,0a2.94,2.94,0,0,1,1.3-1.65,5.46,5.46,0,0,1,2.62-.78c.82.09,5.44,1.06,5.78,1.06a2.53,2.53,0,0,0,2.26-1,2.05,2.05,0,0,0-.12-2.49C382.78,229.52,382.38,228.9,380.6,229.2Z"/><polygon points="326.59 222.49 331.2 223 331.25 234.5 317.73 218.15 309.51 218.15 309.51 222.49 314.16 223 314.16 239.16 309.51 239.68 309.51 244.03 323.89 244.03 323.89 239.68 319.23 239.16 319.23 227.66 332.75 244.03 336.32 244.03 336.32 223 340.98 222.49 340.98 218.15 326.59 218.15 326.59 222.49"/><path d="M293,217.47c-9.63,0-13.1,5.69-13.1,13.61S283.4,244.7,293,244.7s13.1-5.69,13.1-13.62S302.72,217.47,293,217.47Zm0,22.31c-6.27,0-7.93-3.78-7.93-8.7s1.66-8.7,7.93-8.7,7.92,3.78,7.92,8.7S299.26,239.78,293,239.78Z"/><path d="M138.58,218.14h-11v4.35l4.25.52-6.63,16.15-4.35.52V244h14.34v-4.36l-4.41-.47,1-2.59h8.8l.93,2.59-4.35.47V244h14.34v-4.36l-4.35-.52Zm-5.23,14.08,2.79-7.56,2.8,7.56Z"/><path d="M93.13,231.08c0,8.24,5.07,13.62,13.87,13.62a30.39,30.39,0,0,0,9.16-1.25v-8.9h-4.35l-.57,4.81a20.38,20.38,0,0,1-4.3.41c-6.63,0-8.54-3.88-8.54-8.7s1.91-8.7,8.54-8.7a20.67,20.67,0,0,1,4.3.41l.57,4.81h4.35v-8.9a30.44,30.44,0,0,0-9.16-1.24C98.2,217.47,93.13,222.85,93.13,231.08Z"/><polygon points="226.71 222.49 231.38 223 231.38 239.16 226.71 239.68 226.71 244.03 241.1 244.03 241.1 239.68 236.44 239.16 236.44 223 241.1 222.49 241.1 218.15 226.71 218.15 226.71 222.49"/><path d="M269.22,236.83l-.57-1a16,16,0,0,0-1.09-1.61c4.55-.87,6.15-4,6.15-7.91,0-4.67-2.23-8.18-8.9-8.18h-17.5v4.34L252,223v16.16l-4.66.52V244h14.44v-4.35l-4.66-.52V234.5h1.56c2.23,0,2.85.1,4,2.13l.83,1.4c3,5.12,5.86,6.68,10.51,6.68a18.34,18.34,0,0,0,3.83-.47v-4.91a17.15,17.15,0,0,1-3.62.41A5.37,5.37,0,0,1,269.22,236.83Zm-4.61-7.09H257.1V223h7.52c3.16,0,3.73,1.5,3.73,3.37S267.77,229.74,264.62,229.74Z"/><polygon points="182.55 227.66 186.9 227.66 187.41 223 193.16 223 193.16 239.16 188.5 239.67 188.5 244.03 203.15 244.03 203.15 239.67 198.49 239.16 198.49 223 204.24 223 204.75 227.66 209.1 227.66 209.1 218.15 182.55 218.15 182.55 227.66"/><path d="M166.81,228.65c-4-.36-6.68-.68-6.68-3s2.54-3.31,6.84-3.31a27.3,27.3,0,0,1,4.82.36l.57,4.87h4.34v-8.79c-2.69-1.14-7.14-1.35-9.68-1.35-7.93,0-11.9,3.31-11.9,8.48s3.62,6.73,11.23,7.41c4.09.36,6.43.57,6.43,2.85s-2.65,3.57-7.26,3.57a31.53,31.53,0,0,1-5.08-.41l-.52-4.82h-4.34v8.8c1.56.67,7.3,1.35,9.89,1.35,8.49,0,12.42-3.68,12.42-8.54C177.88,230.67,174.26,229.32,166.81,228.65Z"/><path d="M201.74,142c0-3.58-2-5.31-3.65-7.67-1.19-11.73-7.56-35.26-35.45-47.86-6.86-3.1-14-10.8-13.59-24,.47-13.65,5.84-27.68,6.75-39.39.88-11.37-6.6-16.5-14.11-16.5s-15,5.14-14.11,16.5c.91,11.7,6.28,25.74,6.75,39.39.46,13.19-6.73,20.88-13.59,24-27.88,12.6-34.26,36.13-35.45,47.86-1.62,2.36-3.65,4.09-3.65,7.67s2.17,6.35,4.18,8.43c2.61,22.07,23.51,49.33,55.87,49.33s53.26-27.25,55.87-49.33C199.57,148.33,201.74,145.56,201.74,142Zm-60-126.34c4.56,0,6.62,6.3,5.35,13.56-1.43,8.16-4.16,27.58-5.35,27.58-1.4,0-3.84-18.37-5.37-27.51C135.1,22,137.13,15.65,141.69,15.65Zm0,160.89c-18.39,0-33.32-15.52-33.32-34.66s14.93-34.67,33.32-34.67S175,122.71,175,141.87,160.1,176.53,141.69,176.53Z"/><path class="cls-2" d="M141.69,107.2c-18.39,0-33.32,15.52-33.32,34.67s14.93,34.66,33.32,34.66S175,161,175,141.87,160.1,107.2,141.69,107.2ZM151.21,160c-9.42,0-17.08-8-17.08-17.75s7.66-17.77,17.08-17.77,17.08,8,17.08,17.77S160.63,160,151.21,160Z"/><path class="cls-3" d="M151.21,126.1c-8.51,0-15.43,7.23-15.43,16.12s6.92,16.1,15.43,16.1,15.43-7.22,15.43-16.1S159.72,126.1,151.21,126.1Z"/><path d="M151.21,124.46c-9.42,0-17.08,8-17.08,17.77S141.79,160,151.21,160s17.08-8,17.08-17.75S160.63,124.46,151.21,124.46Zm0,33.87c-8.51,0-15.43-7.22-15.43-16.1s6.92-16.12,15.43-16.12,15.43,7.23,15.43,16.12S159.72,158.33,151.21,158.33Z"/><path d="M273.65,143.17c0-21.56-5.82-38.63-16.8-48.52-6.14-5.6-14.53-7.9-27.78-7.9H194.71v20.93c6.13.66,7.75,3.15,7.75,13.11v42.13c0,10-1.62,12.61-7.75,13.1v21.1h36.75c5.42,0,10-.33,13.43-1.32C263,191,273.65,171.38,273.65,143.17Zm-31.33,9.45c-.16,5.49-.16,8.8-.16,9.8v1.48c0,9.3-1.91,12.11-8.77,12.11a31.79,31.79,0,0,1-3.67-.16V108.5a13.58,13.58,0,0,1,2.55-.17c4,0,6.54,1.16,8.13,3.66a22,22,0,0,1,1.76,8.46c0,5.31.16,16.09.16,23.89Z"/><path d="M63.19,159.55c0,12.6-1.81,16.43-8,16.43H51.22V117.42c0-6.64,2.79-9.62,8.69-9.62V86.71H15.32V107.8c6.13.66,7.75,3.15,7.75,13.1V163c0,10-1.62,12.61-7.59,13.11v20.93H82.07V146.29H63.19Z"/><path d="M353.74,153.86V135.37H311.1v18.49c.82,0,1.46.17,1.78.17,4.37.33,5.67,1.67,5.67,5.82v9c0,4.83-2.11,7.83-5.5,7.83-5.19,0-6-3.83-6-28.6,0-14.82.49-27.41,1.13-32.06.81-4.48,3.39-7.3,7-7.3,6.47,0,7.75,3.82,8.08,23.89H345V86.52H330.65c-.64,2.84-1.77,4.12-3.71,4.12-.81,0-1.29-.19-4.84-2.67-2.43-1.45-7.6-2.59-11.32-2.59-10.64,0-19.82,6.25-26.42,17.86-6.28,11.11-8.37,21.07-8.37,40.55,0,16.05,2.09,26,7.41,36.53,6.11,11.8,16.58,18.94,27.21,18.94,4.7,0,10.52-1.83,15.69-4.82a8.48,8.48,0,0,1,3.22-1.16c1.77,0,3.07,1.16,4,3.81H346V163.52c0-6.33,2.75-9.66,7.59-9.66Z"/><path d="M389.4,107.3c9,0,12.15,3.83,12.49,15.3l.16,10h18.4V86.66H348.66v21c6.14.66,7.75,3.16,7.75,13.14V163c0,10-1.61,12.66-7.75,13.15v20.88h71.79V147.56h-18.4v12.81c0,11.82-3.32,16.47-11.85,16.31h-6.7v-28c3.82.33,4.14,1,4.45,8a15,15,0,0,0,.48,3h9.8V121.28h-10c-.15,1.83-.15,3.16-.15,4-.33,6-1,7.15-4.46,7.32V107.3Z"/><path d="M161.49,74.69a4.12,4.12,0,1,0-4.24-4.13A4,4,0,0,0,161.49,74.69Zm0-7.45a3.33,3.33,0,1,1-3.33,3.32A3.06,3.06,0,0,1,161.49,67.24Z"/><path d="M160.56,71.27h1.2l.88,1.71h1l-1-1.86a1.54,1.54,0,0,0,.74-1.39,1.41,1.41,0,0,0-1.6-1.55h-2V73h.84Zm0-2.31h1.23c.56,0,.66.43.66.77s-.1.78-.66.78h-1.23Z"/></svg>